<svg width="80" height="80" viewBox="0 0 80 80" fill="none" xmlns="http://www.w3.org/2000/svg">
<circle cx="40" cy="40" r="40" fill="#F5F5F7"/>
<path fill-rule="evenodd" clip-rule="evenodd" d="M28.3229 20H51.6771C52.7314 20 53.6409 19.9999 54.3901 20.0611C55.1807 20.1257 55.9672 20.2684 56.7239 20.654C57.8529 21.2292 58.7708 22.1471 59.346 23.2761C59.7316 24.0328 59.8743 24.8193 59.9389 25.6099C60.0001 26.3591 60 27.2686 60 28.3229V51.6771C60 52.7314 60.0001 53.6409 59.9389 54.3901C59.8743 55.1808 59.7316 55.9672 59.346 56.7239C58.7708 57.8529 57.8529 58.7708 56.7239 59.346C55.9672 59.7316 55.1807 59.8743 54.3901 59.9389C53.6409 60.0001 52.7314 60 51.6771 60H28.3229C27.2686 60 26.3591 60.0001 25.6099 59.9389C24.8193 59.8743 24.0328 59.7316 23.2761 59.346C22.1471 58.7708 21.2292 57.8529 20.654 56.7239C20.2684 55.9672 20.1257 55.1808 20.0611 54.3901C19.9999 53.6409 20 52.7314 20 51.6771V28.3229C20 27.2686 19.9999 26.3591 20.0611 25.6099C20.1257 24.8193 20.2684 24.0328 20.654 23.2761C21.2292 22.1471 22.1471 21.2292 23.2761 20.654C24.0328 20.2684 24.8193 20.1257 25.6099 20.0611C26.3591 19.9999 27.2686 20 28.3229 20ZM24 36.9297V51.6C24 52.7531 24.0016 53.4977 24.0479 54.0643C24.0922 54.6077 24.1676 54.8091 24.218 54.908C24.4097 55.2843 24.7157 55.5903 25.092 55.782C25.1909 55.8324 25.3923 55.9078 25.9357 55.9521C26.5023 55.9984 27.2469 56 28.4 56H32L32 47.1362C31.9999 46.6314 31.9999 46.1399 32.0339 45.7235C32.0712 45.2664 32.1594 44.7269 32.436 44.184C32.8195 43.4314 33.4314 42.8195 34.184 42.436C34.7269 42.1594 35.2664 42.0712 35.7235 42.0339C36.1399 41.9999 36.6315 41.9999 37.1362 42H42.8638C43.3685 41.9999 43.8601 41.9999 44.2765 42.0339C44.7337 42.0712 45.2731 42.1594 45.816 42.436C46.5686 42.8195 47.1805 43.4314 47.564 44.184C47.8406 44.7269 47.9288 45.2664 47.9661 45.7235C48.0001 46.1399 48.0001 46.6315 48 47.1362L48 56H51.6C52.7531 56 53.4977 55.9984 54.0643 55.9521C54.6077 55.9078 54.8091 55.8324 54.908 55.782C55.2843 55.5903 55.5903 55.2843 55.782 54.908C55.8324 54.8091 55.9078 54.6077 55.9521 54.0643C55.9984 53.4977 56 52.7531 56 51.6V36.9297C54.8233 37.6104 53.4572 38 52 38C49.6106 38 47.4659 36.9525 46 35.2917C44.5341 36.9525 42.3894 38 40 38C37.6106 38 35.4659 36.9525 34 35.2916C32.5341 36.9525 30.3894 38 28 38C26.5429 38 25.1767 37.6104 24 36.9297ZM36 30C36 32.2091 37.7909 34 40 34C42.2091 34 44 32.2091 44 30C44 28.8954 44.8954 28 46 28C47.1046 28 48 28.8954 48 30C48 32.2091 49.7909 34 52 34C54.2091 34 56 32.2091 56 30V28.4C56 27.2469 55.9984 26.5024 55.9521 25.9357C55.9078 25.3923 55.8324 25.1909 55.782 25.092C55.5903 24.7157 55.2843 24.4097 54.908 24.218C54.8091 24.1676 54.6077 24.0922 54.0643 24.0479C53.4977 24.0016 52.7531 24 51.6 24H28.4C27.2469 24 26.5023 24.0016 25.9357 24.0479C25.3923 24.0922 25.1909 24.1676 25.092 24.218C24.7157 24.4097 24.4097 24.7157 24.218 25.092C24.1676 25.1909 24.0922 25.3923 24.0479 25.9357C24.0016 26.5023 24 27.2469 24 28.4V30C24 32.2091 25.7909 34 28 34C30.2091 34 32 32.2091 32 30C32 28.8954 32.8954 28 34 28C35.1046 28 36 28.8954 36 30ZM44 56V47.2C44 46.607 43.9984 46.2824 43.9794 46.0493C43.9786 46.04 43.9779 46.0312 43.9771 46.0229C43.9688 46.0221 43.96 46.0214 43.9507 46.0206C43.7176 46.0016 43.3931 46 42.8 46H37.2C36.607 46 36.2824 46.0016 36.0493 46.0206C36.04 46.0214 36.0312 46.0221 36.0229 46.0229C36.0221 46.0312 36.0214 46.04 36.0206 46.0493C36.0016 46.2824 36 46.607 36 47.2V56H44Z" fill="#C5C5C9"/>
</svg>
