<svg width="60" height="48" viewBox="0 0 60 48" fill="none" xmlns="http://www.w3.org/2000/svg">
<path fill-rule="evenodd" clip-rule="evenodd" d="M28.7845 8.19128C24.8981 9.39672 20.8037 10.6667 16.6665 10.6667C13.9273 10.6667 11.4784 10.3756 9.41089 9.97836C8.00334 9.70791 7.06562 9.52887 6.39019 9.43959C6.2571 9.422 6.14693 9.40972 6.05638 9.40135C6.05059 9.46002 6.04476 9.52907 6.03941 9.60957C6.00128 10.1836 5.99985 10.9863 5.99985 12.2369L5.99985 40.8993C5.99985 40.9985 5.99995 41.062 6.00065 41.1116C6.00656 41.1209 6.01268 41.1304 6.01896 41.1401C6.0252 41.1496 6.03141 41.159 6.03752 41.1681C7.42756 41.7572 10.5673 42.6667 16.6665 42.6667C21.5653 42.6667 25.8975 41.4466 30.2156 40.1179C30.5472 40.0159 30.8804 39.9125 31.2152 39.8087C35.1016 38.6033 39.196 37.3333 43.3332 37.3333C46.0724 37.3333 48.5213 37.6244 50.5888 38.0216C51.9964 38.2921 52.9341 38.4711 53.6095 38.5604C53.7426 38.578 53.8528 38.5903 53.9433 38.5986C53.9491 38.54 53.9549 38.4709 53.9603 38.3904C53.9984 37.8164 53.9998 37.0137 53.9998 35.763V7.10065C53.9998 7.00151 53.9997 6.93798 53.999 6.88841C53.9931 6.87908 53.987 6.86956 53.9807 6.85992C53.9745 6.85034 53.9683 6.84096 53.9622 6.83185C52.5721 6.24281 49.4324 5.33333 43.3332 5.33333C38.4344 5.33333 34.1022 6.55344 29.7841 7.88208C29.4525 7.9841 29.1193 8.08745 28.7845 8.19128ZM54.2591 38.6141C54.2651 38.6136 54.2684 38.6134 54.2691 38.6134ZM5.74062 9.38586C5.73405 9.38649 5.73058 9.38664 5.73048 9.38656ZM28.2156 2.78459C32.5642 1.44656 37.5653 0 43.3332 0C50.1213 0 54.0424 1.03708 56.2284 2.00134C56.2347 2.00412 56.2417 2.0072 56.2494 2.01056C56.365 2.0612 56.6299 2.17727 56.9207 2.3681C57.2172 2.56268 57.4648 2.78193 57.682 2.98918C58.0178 3.3097 58.2987 3.71746 58.4486 3.94748C58.5986 4.1775 58.8583 4.59903 59.016 5.03568C59.3336 5.91483 59.3334 6.53908 59.3332 7.06481L59.3332 35.8532C59.3332 36.9878 59.3332 37.971 59.2819 38.744C59.2339 39.4656 59.1258 40.4746 58.6064 41.3649C58.3236 41.8495 57.9546 42.3616 57.4133 42.8088C56.872 43.256 56.2995 43.5217 55.7702 43.708C54.7603 44.0634 53.6559 43.9463 52.9106 43.8477C52.0611 43.7355 50.968 43.5254 49.6664 43.2753L49.5825 43.2592C47.8057 42.9178 45.6954 42.6667 43.3332 42.6667C40.041 42.6667 36.7043 43.6967 32.5962 44.965C32.3288 45.0475 32.0582 45.1311 31.7841 45.2154C27.4355 46.5534 22.4344 48 16.6665 48C9.87841 48 5.9573 46.9629 3.77131 45.9987C3.76499 45.9959 3.75798 45.9928 3.75032 45.9894C3.63474 45.9388 3.36984 45.8227 3.07901 45.6319C2.7825 45.4373 2.53488 45.2181 2.31772 45.0108C1.98187 44.6903 1.70101 44.2825 1.55107 44.0525C1.40112 43.8225 1.1414 43.401 0.983692 42.9643C0.666147 42.0852 0.666345 41.4609 0.666512 40.9352L0.666518 12.1468C0.666482 11.0122 0.666452 10.029 0.717812 9.256C0.765756 8.53441 0.873884 7.52539 1.39333 6.63513C1.67613 6.15047 2.04506 5.63836 2.58636 5.19117C3.12766 4.74397 3.70019 4.47829 4.2295 4.29203C5.23945 3.93664 6.34384 4.05374 7.08911 4.15225C7.93861 4.26454 9.03174 4.4746 10.3333 4.72471L10.4172 4.74083C12.194 5.08221 14.3043 5.33333 16.6665 5.33333C19.9587 5.33333 23.2954 4.30325 27.4035 3.03502C27.6709 2.95248 27.9415 2.86893 28.2156 2.78459ZM45.9998 13.3333C47.4726 13.3333 48.6665 14.5272 48.6665 16V26.6667C48.6665 28.1394 47.4726 29.3333 45.9998 29.3333C44.5271 29.3333 43.3332 28.1394 43.3332 26.6667V16C43.3332 14.5272 44.5271 13.3333 45.9998 13.3333ZM29.9999 20C27.7907 20 25.9999 21.7909 25.9999 24C25.9999 26.2091 27.7907 28 29.9999 28C32.209 28 33.9999 26.2091 33.9999 24C33.9999 21.7909 32.209 20 29.9999 20ZM20.6665 24C20.6665 18.8453 24.8452 14.6667 29.9999 14.6667C35.1545 14.6667 39.3332 18.8453 39.3332 24C39.3332 29.1547 35.1545 33.3333 29.9999 33.3333C24.8452 33.3333 20.6665 29.1547 20.6665 24ZM13.9999 18.6667C15.4726 18.6667 16.6665 19.8606 16.6665 21.3333V32C16.6665 33.4728 15.4726 34.6667 13.9999 34.6667C12.5271 34.6667 11.3332 33.4728 11.3332 32V21.3333C11.3332 19.8606 12.5271 18.6667 13.9999 18.6667Z" fill="#C5C5C9"/>
</svg>
