<svg width="190" height="190" viewBox="0 0 190 190" fill="none" xmlns="http://www.w3.org/2000/svg">
<rect width="190" height="190" rx="16" fill="#F5F5F7"/>
<path fill-rule="evenodd" clip-rule="evenodd" d="M87.9311 78.3333H102.069C103.41 78.3333 104.518 78.3333 105.42 78.407C106.357 78.4835 107.218 78.6478 108.027 79.06C109.281 79.6991 110.301 80.719 110.94 81.9734C111.352 82.7823 111.516 83.6435 111.593 84.5803C111.667 85.4823 111.667 86.5895 111.667 87.9311V102.069C111.667 103.41 111.667 104.518 111.593 105.42C111.516 106.357 111.352 107.218 110.94 108.027C110.301 109.281 109.281 110.301 108.027 110.94C107.218 111.352 106.357 111.516 105.42 111.593C104.518 111.667 103.41 111.667 102.069 111.667H87.9311C87.8909 111.667 87.8509 111.667 87.8111 111.667L86.4903 111.667C86.0396 111.667 85.5967 111.667 85.24 111.635C85.2267 111.634 85.2128 111.633 85.1983 111.631C84.9824 111.622 84.7765 111.609 84.5803 111.593C83.6434 111.516 82.7823 111.352 81.9734 110.94C80.719 110.301 79.6991 109.281 79.0599 108.027C78.6478 107.218 78.4835 106.357 78.407 105.42C78.3333 104.518 78.3333 103.41 78.3333 102.069V87.9312C78.3333 86.5895 78.3333 85.4823 78.407 84.5803C78.4835 83.6435 78.6478 82.7823 79.0599 81.9734C79.6991 80.719 80.719 79.6991 81.9734 79.06C82.7823 78.6478 83.6434 78.4835 84.5803 78.407C85.4823 78.3333 86.5895 78.3333 87.9311 78.3333ZM88 108.333C87.7747 108.333 87.5608 108.333 87.3573 108.333L100.96 94.7308C101.309 94.3813 101.501 94.191 101.65 94.0649C101.656 94.0598 101.661 94.0551 101.667 94.0507C101.672 94.0551 101.678 94.0598 101.684 94.0649C101.832 94.191 102.024 94.3813 102.374 94.7308L108.333 100.69V102C108.333 103.428 108.332 104.398 108.271 105.148C108.211 105.879 108.103 106.253 107.97 106.513C107.65 107.141 107.14 107.65 106.513 107.97C106.253 108.103 105.879 108.211 105.148 108.271C104.398 108.332 103.428 108.333 102 108.333H88ZM108.333 95.9763L104.693 92.3362C104.396 92.0387 104.106 91.749 103.841 91.5237C103.549 91.2763 103.18 91.0104 102.697 90.8535C102.027 90.636 101.306 90.636 100.637 90.8535C100.154 91.0104 99.7839 91.2763 99.4925 91.5237C99.2271 91.749 98.9375 92.0387 98.6401 92.3362L84.3871 106.589C84.0684 106.908 83.7551 107.221 83.5253 107.495C83.4543 107.58 83.3587 107.697 83.2616 107.844C82.7374 107.524 82.3104 107.064 82.03 106.513C81.8971 106.253 81.7889 105.879 81.7292 105.148C81.6679 104.398 81.6666 103.428 81.6666 102V88C81.6666 86.5724 81.6679 85.6019 81.7292 84.8517C81.7889 84.121 81.8971 83.7474 82.03 83.4867C82.3495 82.8595 82.8595 82.3496 83.4867 82.03C83.7473 81.8972 84.121 81.7889 84.8517 81.7292C85.6019 81.668 86.5723 81.6667 88 81.6667H102C103.428 81.6667 104.398 81.668 105.148 81.7292C105.879 81.7889 106.253 81.8972 106.513 82.03C107.14 82.3496 107.65 82.8595 107.97 83.4867C108.103 83.7474 108.211 84.121 108.271 84.8517C108.332 85.6019 108.333 86.5724 108.333 88V95.9763ZM89.1666 87.5C88.2462 87.5 87.5 88.2462 87.5 89.1667C87.5 90.0871 88.2462 90.8333 89.1666 90.8333C90.0871 90.8333 90.8333 90.0871 90.8333 89.1667C90.8333 88.2462 90.0871 87.5 89.1666 87.5ZM84.1666 89.1667C84.1666 86.4052 86.4052 84.1667 89.1666 84.1667C91.9281 84.1667 94.1666 86.4052 94.1666 89.1667C94.1666 91.9281 91.9281 94.1667 89.1666 94.1667C86.4052 94.1667 84.1666 91.9281 84.1666 89.1667Z" fill="#C5C5C9"/>
</svg>
