<svg width="96" height="41" viewBox="0 0 96 41" fill="none" xmlns="http://www.w3.org/2000/svg">
<path d="M1.08625 6.04014C2.50274 4.63085 4.82544 4.61757 6.01436 6.22163C9.06107 10.3322 10.7335 15.3303 10.7335 20.5C10.7335 25.6697 9.06108 30.6678 6.01436 34.7784C4.82545 36.3824 2.50275 36.3691 1.08626 34.9599C-0.33023 33.5506 -0.28978 31.2802 0.793049 29.6034C2.53329 26.9086 3.47919 23.7528 3.47918 20.5C3.47918 17.2472 2.53329 14.0913 0.793044 11.3966C-0.289786 9.7198 -0.330238 7.44943 1.08625 6.04014Z" fill="#FA8244"/>
<path d="M27.9137 34.9599C26.4973 36.3691 24.1746 36.3824 22.9856 34.7784C19.9389 30.6678 18.2665 25.6697 18.2665 20.5C18.2665 15.3303 19.9389 10.3322 22.9856 6.22165C24.1745 4.61759 26.4972 4.63087 27.9137 6.04015C29.3302 7.44944 29.2898 9.71981 28.2069 11.3966C26.4667 14.0914 25.5208 17.2472 25.5208 20.5C25.5208 23.7529 26.4667 26.9087 28.207 29.6034C29.2898 31.2802 29.3302 33.5506 27.9137 34.9599Z" fill="#FA8244"/>
<path d="M1.17956 11.9998C10.1552 19.9181 20.3635 18.384 27.8601 11.9995C24.8032 17.0122 24.9466 24.1091 27.8573 29.0007C18.4571 23.5154 12.2287 22.8805 1.16845 29.0008C4.13923 23.8053 4.2095 17.6183 1.17956 11.9998Z" fill="url(#paint0_linear_3248_65417)"/>
<path d="M1.17956 11.9998C10.1552 19.9181 20.3635 18.384 27.8601 11.9995C24.8032 17.0122 24.9466 24.1091 27.8573 29.0007C18.4571 23.5154 12.2287 22.8805 1.16845 29.0008C4.13923 23.8053 4.2095 17.6183 1.17956 11.9998Z" fill="url(#paint1_linear_3248_65417)" fill-opacity="0.34"/>
<path d="M50.6918 29.329V19.1142L46.7023 26.7205H45.0145L41.025 19.1142V29.329H38V13.7656H41.2442L45.8475 22.6214L50.4946 13.7656H53.7168V29.329H50.6918Z" fill="#5656FF"/>
<path d="M61.7933 29.5482C60.858 29.5482 60.0177 29.3948 59.2724 29.0879C58.5271 28.7664 57.8915 28.328 57.3654 27.7727C56.8539 27.2174 56.4593 26.5817 56.1817 25.8656C55.904 25.1496 55.7652 24.397 55.7652 23.6078C55.7652 22.8041 55.904 22.0442 56.1817 21.3281C56.4593 20.6121 56.8539 19.9764 57.3654 19.4211C57.8915 18.8657 58.5271 18.4346 59.2724 18.1278C60.0177 17.8063 60.858 17.6455 61.7933 17.6455C62.7285 17.6455 63.5615 17.8063 64.2922 18.1278C65.0375 18.4346 65.6732 18.8657 66.1992 19.4211C66.7253 19.9764 67.1199 20.6121 67.3829 21.3281C67.6606 22.0442 67.7994 22.8041 67.7994 23.6078C67.7994 24.397 67.6606 25.1496 67.3829 25.8656C67.1199 26.5817 66.7253 27.2174 66.1992 27.7727C65.6878 28.328 65.0594 28.7664 64.3141 29.0879C63.5688 29.3948 62.7285 29.5482 61.7933 29.5482ZM58.7902 23.6078C58.7902 24.2801 58.9217 24.8792 59.1847 25.4053C59.4478 25.9168 59.8058 26.3186 60.2588 26.6109C60.7119 26.9032 61.2233 27.0493 61.7933 27.0493C62.3486 27.0493 62.8527 26.9032 63.3058 26.6109C63.7588 26.304 64.1168 25.8948 64.3799 25.3834C64.6575 24.8573 64.7963 24.2581 64.7963 23.5859C64.7963 22.9283 64.6575 22.3365 64.3799 21.8104C64.1168 21.2843 63.7588 20.8751 63.3058 20.5828C62.8527 20.2906 62.3486 20.1444 61.7933 20.1444C61.2233 20.1444 60.7119 20.2979 60.2588 20.6048C59.8058 20.897 59.4478 21.3062 59.1847 21.8323C58.9217 22.3438 58.7902 22.9356 58.7902 23.6078Z" fill="#5656FF"/>
<path d="M74.0126 29.5482C73.0335 29.5482 72.0982 29.3875 71.2068 29.066C70.3154 28.7445 69.5482 28.2695 68.9052 27.6412L69.9574 25.7341C70.6442 26.2894 71.3164 26.6986 71.974 26.9616C72.6463 27.2247 73.2892 27.3562 73.903 27.3562C74.4729 27.3562 74.926 27.2539 75.2621 27.0493C75.6128 26.8447 75.7882 26.5378 75.7882 26.1287C75.7882 25.851 75.6932 25.6391 75.5032 25.493C75.3132 25.3322 75.0356 25.1934 74.6702 25.0765C74.3195 24.9596 73.8884 24.8281 73.3769 24.6819C72.5293 24.4043 71.8206 24.1339 71.2507 23.8709C70.6807 23.6078 70.2496 23.279 69.9574 22.8845C69.6797 22.4753 69.5409 21.9565 69.5409 21.3281C69.5409 20.5682 69.7309 19.9179 70.1108 19.3772C70.5054 18.8219 71.0461 18.3908 71.7329 18.0839C72.4344 17.777 73.2527 17.6236 74.188 17.6236C75.0063 17.6236 75.7808 17.7551 76.5115 18.0182C77.2422 18.2666 77.9071 18.6758 78.5063 19.2457L77.3226 21.1089C76.738 20.6559 76.1827 20.3271 75.6566 20.1225C75.1306 19.9033 74.5972 19.7937 74.0565 19.7937C73.7496 19.7937 73.4573 19.8302 73.1796 19.9033C72.9166 19.9764 72.6974 20.1006 72.522 20.2759C72.3613 20.4367 72.2809 20.6705 72.2809 20.9774C72.2809 21.2551 72.354 21.4743 72.5001 21.635C72.6609 21.7811 72.8947 21.9127 73.2016 22.0296C73.5231 22.1465 73.9103 22.278 74.3633 22.4241C75.284 22.6872 76.0585 22.9575 76.6869 23.2352C77.3299 23.5128 77.8121 23.8563 78.1336 24.2654C78.4551 24.66 78.6159 25.208 78.6159 25.9095C78.6159 27.0493 78.1994 27.9407 77.3664 28.5837C76.5334 29.2267 75.4155 29.5482 74.0126 29.5482Z" fill="#5656FF"/>
<path d="M87.4324 28.7372C87.184 28.8395 86.8844 28.9564 86.5337 29.0879C86.183 29.2194 85.803 29.3217 85.3939 29.3948C84.9993 29.4825 84.5974 29.5263 84.1882 29.5263C83.6475 29.5263 83.1507 29.4313 82.6977 29.2413C82.2447 29.0514 81.8793 28.7518 81.6017 28.3426C81.3386 27.9188 81.2071 27.3708 81.2071 26.6986V20.1006H79.6946V17.8428H81.2071V14.1164H84.1444V17.8428H86.5556V20.1006H84.1444V25.7122C84.159 26.1067 84.2686 26.3917 84.4732 26.5671C84.6778 26.7424 84.9335 26.8301 85.2404 26.8301C85.5473 26.8301 85.8469 26.779 86.1392 26.6767C86.4314 26.5744 86.6652 26.4867 86.8406 26.4136L87.4324 28.7372Z" fill="#5656FF"/>
<defs>
<linearGradient id="paint0_linear_3248_65417" x1="27.6129" y1="20.4999" x2="2.57533" y2="20.0257" gradientUnits="userSpaceOnUse">
<stop stop-color="#FF09D0" stop-opacity="0.87"/>
<stop offset="1" stop-color="#1D3CF8" stop-opacity="0.63"/>
</linearGradient>
<linearGradient id="paint1_linear_3248_65417" x1="26.9577" y1="21.1139" x2="21.0353" y2="21.1369" gradientUnits="userSpaceOnUse">
<stop stop-color="white"/>
<stop offset="1" stop-color="white" stop-opacity="0"/>
</linearGradient>
</defs>
</svg>
