<svg width="272" height="40" viewBox="0 0 272 40" fill="none" xmlns="http://www.w3.org/2000/svg">
<path d="M1.08625 5.04014C2.50274 3.63085 4.82544 3.61757 6.01436 5.22163C9.06107 9.33221 10.7335 14.3303 10.7335 19.5C10.7335 24.6697 9.06108 29.6678 6.01436 33.7784C4.82545 35.3824 2.50275 35.3691 1.08626 33.9599C-0.33023 32.5506 -0.28978 30.2802 0.793049 28.6034C2.53329 25.9086 3.47919 22.7528 3.47918 19.5C3.47918 16.2472 2.53329 13.0913 0.793044 10.3966C-0.289786 8.7198 -0.330238 6.44943 1.08625 5.04014Z" fill="#FA8244"/>
<path d="M27.9137 33.9599C26.4973 35.3691 24.1746 35.3824 22.9856 33.7784C19.9389 29.6678 18.2665 24.6697 18.2665 19.5C18.2665 14.3303 19.9389 9.33223 22.9856 5.22165C24.1745 3.61759 26.4972 3.63087 27.9137 5.04015C29.3302 6.44944 29.2898 8.71981 28.2069 10.3966C26.4667 13.0914 25.5208 16.2472 25.5208 19.5C25.5208 22.7529 26.4667 25.9087 28.207 28.6034C29.2898 30.2802 29.3302 32.5506 27.9137 33.9599Z" fill="#FA8244"/>
<path d="M1.17956 10.9998C10.1552 18.9181 20.3635 17.384 27.8601 10.9995C24.8032 16.0122 24.9466 23.1091 27.8573 28.0007C18.4571 22.5154 12.2287 21.8805 1.16845 28.0008C4.13923 22.8053 4.2095 16.6183 1.17956 10.9998Z" fill="url(#paint0_linear_4393_488653)"/>
<path d="M1.17956 10.9998C10.1552 18.9181 20.3635 17.384 27.8601 10.9995C24.8032 16.0122 24.9466 23.1091 27.8573 28.0007C18.4571 22.5154 12.2287 21.8805 1.16845 28.0008C4.13923 22.8053 4.2095 16.6183 1.17956 10.9998Z" fill="url(#paint1_linear_4393_488653)" fill-opacity="0.34"/>
<path d="M46.216 22.8611V16.3889L43.6334 21.2083H42.5408L39.9582 16.3889V22.8611H38V13H40.1001L43.08 18.6111L46.0883 13H48.1743V22.8611H46.216Z" fill="white"/>
<path d="M53.4025 23C52.7971 23 52.2531 22.9028 51.7707 22.7083C51.2882 22.5046 50.8767 22.2269 50.5361 21.875C50.205 21.5231 49.9496 21.1204 49.7699 20.6667C49.5901 20.213 49.5003 19.7361 49.5003 19.2361C49.5003 18.7269 49.5901 18.2454 49.7699 17.7917C49.9496 17.338 50.205 16.9352 50.5361 16.5833C50.8767 16.2315 51.2882 15.9583 51.7707 15.7639C52.2531 15.5602 52.7971 15.4583 53.4025 15.4583C54.008 15.4583 54.5472 15.5602 55.0202 15.7639C55.5026 15.9583 55.9142 16.2315 56.2547 16.5833C56.5953 16.9352 56.8507 17.338 57.021 17.7917C57.2007 18.2454 57.2906 18.7269 57.2906 19.2361C57.2906 19.7361 57.2007 20.213 57.021 20.6667C56.8507 21.1204 56.5953 21.5231 56.2547 21.875C55.9236 22.2269 55.5168 22.5046 55.0344 22.7083C54.5519 22.9028 54.008 23 53.4025 23ZM51.4585 19.2361C51.4585 19.662 51.5436 20.0417 51.7139 20.375C51.8842 20.6991 52.116 20.9537 52.4092 21.1389C52.7025 21.3241 53.0336 21.4167 53.4025 21.4167C53.762 21.4167 54.0884 21.3241 54.3816 21.1389C54.6749 20.9444 54.9067 20.6852 55.0769 20.3611C55.2567 20.0278 55.3466 19.6481 55.3466 19.2222C55.3466 18.8056 55.2567 18.4306 55.0769 18.0972C54.9067 17.7639 54.6749 17.5046 54.3816 17.3194C54.0884 17.1343 53.762 17.0417 53.4025 17.0417C53.0336 17.0417 52.7025 17.1389 52.4092 17.3333C52.116 17.5185 51.8842 17.7778 51.7139 18.1111C51.5436 18.4352 51.4585 18.8102 51.4585 19.2361Z" fill="white"/>
<path d="M61.3127 23C60.6789 23 60.0734 22.8981 59.4964 22.6944C58.9193 22.4907 58.4227 22.1898 58.0064 21.7917L58.6875 20.5833C59.1322 20.9352 59.5673 21.1944 59.993 21.3611C60.4282 21.5278 60.8444 21.6111 61.2417 21.6111C61.6107 21.6111 61.9039 21.5463 62.1215 21.4167C62.3486 21.287 62.4621 21.0926 62.4621 20.8333C62.4621 20.6574 62.4006 20.5231 62.2776 20.4306C62.1546 20.3287 61.9749 20.2407 61.7384 20.1667C61.5114 20.0926 61.2323 20.0093 60.9012 19.9167C60.3525 19.7407 59.8937 19.5694 59.5247 19.4028C59.1558 19.2361 58.8767 19.0278 58.6875 18.7778C58.5078 18.5185 58.4179 18.1898 58.4179 17.7917C58.4179 17.3102 58.5409 16.8981 58.7869 16.5556C59.0423 16.2037 59.3923 15.9306 59.8369 15.7361C60.291 15.5417 60.8208 15.4444 61.4262 15.4444C61.956 15.4444 62.4574 15.5278 62.9304 15.6944C63.4034 15.8519 63.8338 16.1111 64.2217 16.4722L63.4554 17.6528C63.077 17.3657 62.7175 17.1574 62.3769 17.0278C62.0364 16.8889 61.6911 16.8194 61.3411 16.8194C61.1424 16.8194 60.9532 16.8426 60.7735 16.8889C60.6032 16.9352 60.4613 17.0139 60.3478 17.125C60.2437 17.2269 60.1917 17.375 60.1917 17.5694C60.1917 17.7454 60.239 17.8843 60.3336 17.9861C60.4376 18.0787 60.589 18.162 60.7877 18.2361C60.9958 18.3102 61.2465 18.3935 61.5397 18.4861C62.1357 18.6528 62.6371 18.8241 63.0439 19C63.4601 19.1759 63.7723 19.3935 63.9804 19.6528C64.1885 19.9028 64.2926 20.25 64.2926 20.6944C64.2926 21.4167 64.023 21.9815 63.4838 22.3889C62.9446 22.7963 62.2209 23 61.3127 23Z" fill="white"/>
<path d="M70 22.4861C69.8392 22.5509 69.6453 22.625 69.4182 22.7083C69.1912 22.7917 68.9452 22.8565 68.6803 22.9028C68.4249 22.9583 68.1648 22.9861 67.8999 22.9861C67.5499 22.9861 67.2282 22.9259 66.9349 22.8056C66.6417 22.6852 66.4052 22.4954 66.2254 22.2361C66.0552 21.9676 65.97 21.6204 65.97 21.1944V17.0139H64.9909V15.5833H65.97V13.2222H67.8715V15.5833H69.4324V17.0139H67.8715V20.5694C67.881 20.8194 67.9519 21 68.0843 21.1111C68.2168 21.2222 68.3823 21.2778 68.581 21.2778C68.7797 21.2778 68.9736 21.2454 69.1628 21.1806C69.352 21.1157 69.5033 21.0602 69.6169 21.0139L70 22.4861Z" fill="white"/>
<path d="M38.3899 31.3998C38.3899 30.9665 38.4632 30.5431 38.6099 30.1298C38.7632 29.7098 38.9832 29.3298 39.2699 28.9898C39.5632 28.6431 39.9199 28.3698 40.3399 28.1698C40.7599 27.9631 41.2366 27.8598 41.7699 27.8598C42.4032 27.8598 42.9466 28.0065 43.3999 28.2998C43.8532 28.5865 44.1899 28.9565 44.4099 29.4098L43.6999 29.8698C43.5599 29.5698 43.3799 29.3331 43.1599 29.1598C42.9466 28.9798 42.7132 28.8531 42.4599 28.7798C42.2132 28.7065 41.9699 28.6698 41.7299 28.6698C41.3366 28.6698 40.9866 28.7498 40.6799 28.9098C40.3799 29.0698 40.1266 29.2831 39.9199 29.5498C39.7132 29.8165 39.5566 30.1165 39.4499 30.4498C39.3499 30.7765 39.2999 31.1065 39.2999 31.4398C39.2999 31.8065 39.3599 32.1598 39.4799 32.4998C39.6066 32.8398 39.7799 33.1398 39.9999 33.3998C40.2199 33.6598 40.4799 33.8665 40.7799 34.0198C41.0799 34.1731 41.4066 34.2498 41.7599 34.2498C42.0066 34.2498 42.2599 34.2065 42.5199 34.1198C42.7799 34.0331 43.0232 33.8998 43.2499 33.7198C43.4766 33.5331 43.6566 33.2931 43.7899 32.9998L44.5399 33.4098C44.3932 33.7631 44.1666 34.0631 43.8599 34.3098C43.5532 34.5565 43.2099 34.7431 42.8299 34.8698C42.4566 34.9965 42.0866 35.0598 41.7199 35.0598C41.2332 35.0598 40.7866 34.9565 40.3799 34.7498C39.9732 34.5365 39.6199 34.2565 39.3199 33.9098C39.0266 33.5565 38.7966 33.1631 38.6299 32.7298C38.4699 32.2898 38.3899 31.8465 38.3899 31.3998Z" fill="#9A9AA0"/>
<path d="M47.8063 35.0998C47.413 35.0998 47.0563 35.0298 46.7363 34.8898C46.4163 34.7431 46.1396 34.5465 45.9063 34.2998C45.673 34.0465 45.493 33.7565 45.3663 33.4298C45.2396 33.1031 45.1763 32.7598 45.1763 32.3998C45.1763 32.0331 45.2396 31.6865 45.3663 31.3598C45.493 31.0331 45.673 30.7465 45.9063 30.4998C46.1396 30.2465 46.4163 30.0498 46.7363 29.9098C47.063 29.7631 47.4196 29.6898 47.8063 29.6898C48.1996 29.6898 48.5563 29.7631 48.8763 29.9098C49.1963 30.0498 49.473 30.2465 49.7063 30.4998C49.9463 30.7465 50.1296 31.0331 50.2563 31.3598C50.383 31.6865 50.4463 32.0331 50.4463 32.3998C50.4463 32.7598 50.383 33.1031 50.2563 33.4298C50.1296 33.7565 49.9496 34.0465 49.7163 34.2998C49.483 34.5465 49.203 34.7431 48.8763 34.8898C48.5563 35.0298 48.1996 35.0998 47.8063 35.0998ZM46.0763 32.4098C46.0763 32.7698 46.153 33.0965 46.3063 33.3898C46.4663 33.6831 46.6763 33.9165 46.9363 34.0898C47.1963 34.2565 47.4863 34.3398 47.8063 34.3398C48.1263 34.3398 48.4163 34.2531 48.6763 34.0798C48.943 33.9065 49.153 33.6731 49.3063 33.3798C49.4663 33.0798 49.5463 32.7498 49.5463 32.3898C49.5463 32.0298 49.4663 31.7031 49.3063 31.4098C49.153 31.1165 48.943 30.8831 48.6763 30.7098C48.4163 30.5365 48.1263 30.4498 47.8063 30.4498C47.4863 30.4498 47.1963 30.5398 46.9363 30.7198C46.6763 30.8931 46.4663 31.1265 46.3063 31.4198C46.153 31.7131 46.0763 32.0431 46.0763 32.4098Z" fill="#9A9AA0"/>
<path d="M53.8226 35.0998C53.4293 35.0998 53.0693 35.0298 52.7426 34.8898C52.4226 34.7431 52.1426 34.5465 51.9026 34.2998C51.6693 34.0465 51.486 33.7565 51.3526 33.4298C51.226 33.1031 51.1626 32.7565 51.1626 32.3898C51.1626 31.8965 51.276 31.4465 51.5026 31.0398C51.7293 30.6331 52.0426 30.3065 52.4426 30.0598C52.8493 29.8131 53.3126 29.6898 53.8326 29.6898C54.3593 29.6898 54.816 29.8165 55.2026 30.0698C55.596 30.3165 55.8993 30.6431 56.1126 31.0498C56.3326 31.4498 56.4426 31.8831 56.4426 32.3498C56.4426 32.4165 56.4393 32.4831 56.4326 32.5498C56.4326 32.6098 56.4293 32.6565 56.4226 32.6898H52.0926C52.1193 33.0298 52.2126 33.3331 52.3726 33.5998C52.5393 33.8598 52.7526 34.0665 53.0126 34.2198C53.2726 34.3665 53.5526 34.4398 53.8526 34.4398C54.1726 34.4398 54.4726 34.3598 54.7526 34.1998C55.0393 34.0398 55.236 33.8298 55.3426 33.5698L56.1026 33.7798C55.9893 34.0331 55.8193 34.2598 55.5926 34.4598C55.3726 34.6598 55.1093 34.8165 54.8026 34.9298C54.5026 35.0431 54.176 35.0998 53.8226 35.0998ZM52.0626 32.0798H55.6226C55.596 31.7398 55.4993 31.4398 55.3326 31.1798C55.166 30.9198 54.9526 30.7165 54.6926 30.5698C54.4326 30.4231 54.146 30.3498 53.8326 30.3498C53.526 30.3498 53.2426 30.4231 52.9826 30.5698C52.7226 30.7165 52.5093 30.9198 52.3426 31.1798C52.1826 31.4398 52.0893 31.7398 52.0626 32.0798Z" fill="#9A9AA0"/>
<path d="M56.8408 36.2298V34.2198H56.9508C57.0975 34.2198 57.2308 34.1765 57.3508 34.0898C57.4775 34.0031 57.5875 33.8531 57.6808 33.6398C57.7808 33.4198 57.8608 33.1198 57.9208 32.7398C57.9808 32.3598 58.0208 31.8765 58.0408 31.2898L58.0908 29.7798H61.6408V34.2198H62.3508V36.2298H61.5708V34.9998H57.6208V36.2298H56.8408ZM58.1808 34.2198H60.7608V30.5598H58.8708L58.8408 31.3698C58.8208 31.9365 58.7808 32.4131 58.7208 32.7998C58.6675 33.1798 58.5942 33.4831 58.5008 33.7098C58.4142 33.9365 58.3075 34.1065 58.1808 34.2198Z" fill="#9A9AA0"/>
<path d="M63.319 34.9998V29.7898H64.199V33.8198L67.119 29.7798H67.919V34.9998H67.039V31.0498L64.159 34.9998H63.319Z" fill="#9A9AA0"/>
<path d="M69.3151 34.9998V29.7798H70.1951V31.9398H72.9151V29.7798H73.7951V34.9998H72.9151V32.7198H70.1951V34.9998H69.3151Z" fill="#9A9AA0"/>
<path d="M74.8238 34.9998L76.3038 32.8998C75.9638 32.8331 75.6905 32.6731 75.4838 32.4198C75.2771 32.1598 75.1738 31.8131 75.1738 31.3798C75.1738 31.0665 75.2471 30.7898 75.3938 30.5498C75.5405 30.3098 75.7438 30.1198 76.0038 29.9798C76.2705 29.8398 76.5805 29.7698 76.9338 29.7698H79.0738V34.9998H78.1938V33.0398H77.1738L75.7938 34.9998H74.8238ZM76.9938 32.3898H78.1938V30.4598H77.0938C76.7805 30.4598 76.5305 30.5498 76.3438 30.7298C76.1571 30.9031 76.0638 31.1265 76.0638 31.3998C76.0638 31.6731 76.1405 31.9065 76.2938 32.0998C76.4538 32.2931 76.6871 32.3898 76.9938 32.3898Z" fill="#9A9AA0"/>
<path d="M80.487 34.9998V29.7798H81.397L83.337 33.1998L85.287 29.7798H86.177V34.9998H85.337V31.0498L83.617 34.0698H83.057L81.327 31.0498V34.9998H80.487Z" fill="#9A9AA0"/>
<path d="M92.5859 35.0998C91.7259 35.0998 91.0759 34.8398 90.6359 34.3198C90.1959 33.7998 89.9759 33.0665 89.9759 32.1198C89.9759 31.4731 90.0292 30.9298 90.1359 30.4898C90.2426 30.0431 90.4026 29.6765 90.6159 29.3898C90.8292 29.0965 91.0926 28.8598 91.4059 28.6798C91.7192 28.4931 92.0792 28.3398 92.4859 28.2198L94.6959 27.5498L94.7459 28.3098L92.5959 28.9598C92.2292 29.0798 91.9226 29.2331 91.6759 29.4198C91.4292 29.6065 91.2359 29.8465 91.0959 30.1398C90.9559 30.4331 90.8626 30.8098 90.8159 31.2698C90.9892 30.9165 91.2492 30.6431 91.5959 30.4498C91.9426 30.2498 92.3459 30.1498 92.8059 30.1498C93.2992 30.1498 93.7226 30.2531 94.0759 30.4598C94.4359 30.6598 94.7092 30.9431 94.8959 31.3098C95.0892 31.6698 95.1859 32.0865 95.1859 32.5598C95.1859 33.0665 95.0859 33.5098 94.8859 33.8898C94.6859 34.2698 94.3926 34.5665 94.0059 34.7798C93.6192 34.9931 93.1459 35.0998 92.5859 35.0998ZM92.5859 34.3398C93.1259 34.3398 93.5426 34.1831 93.8359 33.8698C94.1359 33.5498 94.2859 33.1265 94.2859 32.5998C94.2859 32.0865 94.1392 31.6698 93.8459 31.3498C93.5526 31.0298 93.1326 30.8698 92.5859 30.8698C92.2659 30.8698 91.9759 30.9365 91.7159 31.0698C91.4626 31.2031 91.2592 31.3998 91.1059 31.6598C90.9592 31.9131 90.8859 32.2265 90.8859 32.5998C90.8859 32.9331 90.9492 33.2331 91.0759 33.4998C91.2092 33.7598 91.4026 33.9665 91.6559 34.1198C91.9092 34.2665 92.2192 34.3398 92.5859 34.3398Z" fill="#9A9AA0"/>
<path d="M96.2487 34.9998V29.7898H97.1287V33.8198L100.049 29.7798H100.849V34.9998H99.9687V31.0498L97.0887 34.9998H96.2487Z" fill="#9A9AA0"/>
<path d="M103.885 35.0698C103.378 35.0698 102.948 34.9765 102.595 34.7898C102.248 34.5965 101.981 34.3298 101.795 33.9898L102.515 33.6698C102.635 33.8831 102.805 34.0498 103.025 34.1698C103.251 34.2898 103.525 34.3498 103.845 34.3498C104.225 34.3498 104.525 34.2665 104.745 34.0998C104.965 33.9331 105.075 33.7098 105.075 33.4298C105.075 33.1765 104.985 32.9731 104.805 32.8198C104.631 32.6598 104.385 32.5765 104.065 32.5698H103.535V31.9898H104.095C104.235 31.9898 104.358 31.9565 104.465 31.8898C104.578 31.8165 104.665 31.7198 104.725 31.5998C104.791 31.4798 104.825 31.3465 104.825 31.1998C104.825 30.9665 104.741 30.7798 104.575 30.6398C104.408 30.4931 104.158 30.4198 103.825 30.4198C103.551 30.4198 103.321 30.4731 103.135 30.5798C102.955 30.6865 102.808 30.8465 102.695 31.0598L102.025 30.6998C102.191 30.3865 102.431 30.1431 102.745 29.9698C103.065 29.7898 103.438 29.6998 103.865 29.6998C104.205 29.6998 104.505 29.7565 104.765 29.8698C105.031 29.9765 105.238 30.1331 105.385 30.3398C105.538 30.5465 105.615 30.7965 105.615 31.0898C105.615 31.3365 105.555 31.5665 105.435 31.7798C105.321 31.9865 105.151 32.1431 104.925 32.2498C105.238 32.3431 105.478 32.5065 105.645 32.7398C105.811 32.9665 105.895 33.2365 105.895 33.5498C105.895 33.8698 105.808 34.1431 105.635 34.3698C105.461 34.5965 105.225 34.7698 104.925 34.8898C104.625 35.0098 104.278 35.0698 103.885 35.0698Z" fill="#9A9AA0"/>
<path d="M106.942 34.9998V29.7798H107.822V31.9398H110.542V29.7798H111.422V34.9998H110.542V32.7198H107.822V34.9998H106.942Z" fill="#9A9AA0"/>
<path d="M115.151 35.0998C114.757 35.0998 114.397 35.0298 114.071 34.8898C113.751 34.7431 113.471 34.5465 113.231 34.2998C112.997 34.0465 112.814 33.7565 112.681 33.4298C112.554 33.1031 112.491 32.7565 112.491 32.3898C112.491 31.8965 112.604 31.4465 112.831 31.0398C113.057 30.6331 113.371 30.3065 113.771 30.0598C114.177 29.8131 114.641 29.6898 115.161 29.6898C115.687 29.6898 116.144 29.8165 116.531 30.0698C116.924 30.3165 117.227 30.6431 117.441 31.0498C117.661 31.4498 117.771 31.8831 117.771 32.3498C117.771 32.4165 117.767 32.4831 117.761 32.5498C117.761 32.6098 117.757 32.6565 117.751 32.6898H113.421C113.447 33.0298 113.541 33.3331 113.701 33.5998C113.867 33.8598 114.081 34.0665 114.341 34.2198C114.601 34.3665 114.881 34.4398 115.181 34.4398C115.501 34.4398 115.801 34.3598 116.081 34.1998C116.367 34.0398 116.564 33.8298 116.671 33.5698L117.431 33.7798C117.317 34.0331 117.147 34.2598 116.921 34.4598C116.701 34.6598 116.437 34.8165 116.131 34.9298C115.831 35.0431 115.504 35.0998 115.151 35.0998ZM113.391 32.0798H116.951C116.924 31.7398 116.827 31.4398 116.661 31.1798C116.494 30.9198 116.281 30.7165 116.021 30.5698C115.761 30.4231 115.474 30.3498 115.161 30.3498C114.854 30.3498 114.571 30.4231 114.311 30.5698C114.051 30.7165 113.837 30.9198 113.671 31.1798C113.511 31.4398 113.417 31.7398 113.391 32.0798Z" fill="#9A9AA0"/>
<path d="M121.059 35.0998C120.666 35.0998 120.306 35.0298 119.979 34.8898C119.659 34.7431 119.379 34.5431 119.139 34.2898C118.906 34.0365 118.722 33.7465 118.589 33.4198C118.462 33.0931 118.399 32.7465 118.399 32.3798C118.399 31.8865 118.509 31.4365 118.729 31.0298C118.949 30.6231 119.259 30.2998 119.659 30.0598C120.059 29.8131 120.522 29.6898 121.049 29.6898C121.562 29.6898 122.009 29.8065 122.389 30.0398C122.776 30.2665 123.062 30.5731 123.249 30.9598L122.389 31.2298C122.256 30.9831 122.069 30.7931 121.829 30.6598C121.589 30.5198 121.322 30.4498 121.029 30.4498C120.709 30.4498 120.416 30.5331 120.149 30.6998C119.889 30.8665 119.682 31.0965 119.529 31.3898C119.376 31.6765 119.299 32.0065 119.299 32.3798C119.299 32.7465 119.376 33.0798 119.529 33.3798C119.689 33.6731 119.899 33.9065 120.159 34.0798C120.426 34.2531 120.719 34.3398 121.039 34.3398C121.246 34.3398 121.442 34.3031 121.629 34.2298C121.822 34.1565 121.989 34.0598 122.129 33.9398C122.276 33.8131 122.376 33.6765 122.429 33.5298L123.289 33.7898C123.182 34.0431 123.019 34.2698 122.799 34.4698C122.586 34.6631 122.329 34.8165 122.029 34.9298C121.736 35.0431 121.412 35.0998 121.059 35.0998Z" fill="#9A9AA0"/>
<path d="M124.276 34.9998V29.7798H125.156V31.5598H126.216C126.829 31.5598 127.293 31.7165 127.606 32.0298C127.926 32.3365 128.086 32.7398 128.086 33.2398C128.086 33.5731 128.016 33.8731 127.876 34.1398C127.743 34.4065 127.543 34.6165 127.276 34.7698C127.009 34.9231 126.676 34.9998 126.276 34.9998H124.276ZM125.156 34.3098H126.156C126.403 34.3098 126.599 34.2631 126.746 34.1698C126.899 34.0698 127.013 33.9398 127.086 33.7798C127.159 33.6198 127.196 33.4465 127.196 33.2598C127.196 33.0798 127.163 32.9131 127.096 32.7598C127.029 32.6065 126.919 32.4831 126.766 32.3898C126.613 32.2965 126.403 32.2498 126.136 32.2498H125.156V34.3098ZM128.986 34.9998V29.7898H129.866V34.9998H128.986Z" fill="#9A9AA0"/>
<path d="M133.747 32.6698V31.8698H141.577V32.6698H133.747Z" fill="#9A9AA0"/>
<path d="M147.738 35.0998C147.345 35.0998 146.988 35.0298 146.668 34.8898C146.348 34.7431 146.071 34.5465 145.838 34.2998C145.605 34.0465 145.425 33.7565 145.298 33.4298C145.171 33.1031 145.108 32.7598 145.108 32.3998C145.108 32.0331 145.171 31.6865 145.298 31.3598C145.425 31.0331 145.605 30.7465 145.838 30.4998C146.071 30.2465 146.348 30.0498 146.668 29.9098C146.995 29.7631 147.351 29.6898 147.738 29.6898C148.131 29.6898 148.488 29.7631 148.808 29.9098C149.128 30.0498 149.405 30.2465 149.638 30.4998C149.878 30.7465 150.061 31.0331 150.188 31.3598C150.315 31.6865 150.378 32.0331 150.378 32.3998C150.378 32.7598 150.315 33.1031 150.188 33.4298C150.061 33.7565 149.881 34.0465 149.648 34.2998C149.415 34.5465 149.135 34.7431 148.808 34.8898C148.488 35.0298 148.131 35.0998 147.738 35.0998ZM146.008 32.4098C146.008 32.7698 146.085 33.0965 146.238 33.3898C146.398 33.6831 146.608 33.9165 146.868 34.0898C147.128 34.2565 147.418 34.3398 147.738 34.3398C148.058 34.3398 148.348 34.2531 148.608 34.0798C148.875 33.9065 149.085 33.6731 149.238 33.3798C149.398 33.0798 149.478 32.7498 149.478 32.3898C149.478 32.0298 149.398 31.7031 149.238 31.4098C149.085 31.1165 148.875 30.8831 148.608 30.7098C148.348 30.5365 148.058 30.4498 147.738 30.4498C147.418 30.4498 147.128 30.5398 146.868 30.7198C146.608 30.8931 146.398 31.1265 146.238 31.4198C146.085 31.7131 146.008 32.0431 146.008 32.4098Z" fill="#9A9AA0"/>
<path d="M153.904 35.0998C153.044 35.0998 152.394 34.8398 151.954 34.3198C151.514 33.7998 151.294 33.0665 151.294 32.1198C151.294 31.4731 151.348 30.9298 151.454 30.4898C151.561 30.0431 151.721 29.6765 151.934 29.3898C152.148 29.0965 152.411 28.8598 152.724 28.6798C153.038 28.4931 153.398 28.3398 153.804 28.2198L156.014 27.5498L156.064 28.3098L153.914 28.9598C153.548 29.0798 153.241 29.2331 152.994 29.4198C152.748 29.6065 152.554 29.8465 152.414 30.1398C152.274 30.4331 152.181 30.8098 152.134 31.2698C152.308 30.9165 152.568 30.6431 152.914 30.4498C153.261 30.2498 153.664 30.1498 154.124 30.1498C154.618 30.1498 155.041 30.2531 155.394 30.4598C155.754 30.6598 156.028 30.9431 156.214 31.3098C156.408 31.6698 156.504 32.0865 156.504 32.5598C156.504 33.0665 156.404 33.5098 156.204 33.8898C156.004 34.2698 155.711 34.5665 155.324 34.7798C154.938 34.9931 154.464 35.0998 153.904 35.0998ZM153.904 34.3398C154.444 34.3398 154.861 34.1831 155.154 33.8698C155.454 33.5498 155.604 33.1265 155.604 32.5998C155.604 32.0865 155.458 31.6698 155.164 31.3498C154.871 31.0298 154.451 30.8698 153.904 30.8698C153.584 30.8698 153.294 30.9365 153.034 31.0698C152.781 31.2031 152.578 31.3998 152.424 31.6598C152.278 31.9131 152.204 32.2265 152.204 32.5998C152.204 32.9331 152.268 33.2331 152.394 33.4998C152.528 33.7598 152.721 33.9665 152.974 34.1198C153.228 34.2665 153.538 34.3398 153.904 34.3398Z" fill="#9A9AA0"/>
<path d="M158.332 34.9998V30.5098H156.822V29.7798H159.212V31.5598H160.522C161.135 31.5598 161.599 31.7165 161.912 32.0298C162.225 32.3365 162.382 32.7398 162.382 33.2398C162.382 33.5731 162.312 33.8731 162.172 34.1398C162.039 34.4065 161.839 34.6165 161.572 34.7698C161.305 34.9231 160.972 34.9998 160.572 34.9998H158.332ZM159.212 34.3098H160.452C160.699 34.3098 160.895 34.2631 161.042 34.1698C161.195 34.0698 161.309 33.9398 161.382 33.7798C161.455 33.6198 161.492 33.4465 161.492 33.2598C161.492 33.0798 161.459 32.9131 161.392 32.7598C161.325 32.6065 161.215 32.4831 161.062 32.3898C160.909 32.2965 160.699 32.2498 160.432 32.2498H159.212V34.3098Z" fill="#9A9AA0"/>
<path d="M165.649 35.0998C165.255 35.0998 164.895 35.0298 164.569 34.8898C164.249 34.7431 163.969 34.5465 163.729 34.2998C163.495 34.0465 163.312 33.7565 163.179 33.4298C163.052 33.1031 162.989 32.7565 162.989 32.3898C162.989 31.8965 163.102 31.4465 163.329 31.0398C163.555 30.6331 163.869 30.3065 164.269 30.0598C164.675 29.8131 165.139 29.6898 165.659 29.6898C166.185 29.6898 166.642 29.8165 167.029 30.0698C167.422 30.3165 167.725 30.6431 167.939 31.0498C168.159 31.4498 168.269 31.8831 168.269 32.3498C168.269 32.4165 168.265 32.4831 168.259 32.5498C168.259 32.6098 168.255 32.6565 168.249 32.6898H163.919C163.945 33.0298 164.039 33.3331 164.199 33.5998C164.365 33.8598 164.579 34.0665 164.839 34.2198C165.099 34.3665 165.379 34.4398 165.679 34.4398C165.999 34.4398 166.299 34.3598 166.579 34.1998C166.865 34.0398 167.062 33.8298 167.169 33.5698L167.929 33.7798C167.815 34.0331 167.645 34.2598 167.419 34.4598C167.199 34.6598 166.935 34.8165 166.629 34.9298C166.329 35.0431 166.002 35.0998 165.649 35.0998ZM163.889 32.0798H167.449C167.422 31.7398 167.325 31.4398 167.159 31.1798C166.992 30.9198 166.779 30.7165 166.519 30.5698C166.259 30.4231 165.972 30.3498 165.659 30.3498C165.352 30.3498 165.069 30.4231 164.809 30.5698C164.549 30.7165 164.335 30.9198 164.169 31.1798C164.009 31.4398 163.915 31.7398 163.889 32.0798Z" fill="#9A9AA0"/>
<path d="M168.667 36.2298V34.2198H168.777C168.924 34.2198 169.057 34.1765 169.177 34.0898C169.304 34.0031 169.414 33.8531 169.507 33.6398C169.607 33.4198 169.687 33.1198 169.747 32.7398C169.807 32.3598 169.847 31.8765 169.867 31.2898L169.917 29.7798H173.467V34.2198H174.177V36.2298H173.397V34.9998H169.447V36.2298H168.667ZM170.007 34.2198H172.587V30.5598H170.697L170.667 31.3698C170.647 31.9365 170.607 32.4131 170.547 32.7998C170.494 33.1798 170.42 33.4831 170.327 33.7098C170.24 33.9365 170.134 34.1065 170.007 34.2198Z" fill="#9A9AA0"/>
<path d="M175.145 34.9998V29.7898H176.025V33.8198L178.945 29.7798H179.745V34.9998H178.865V31.0498L175.985 34.9998H175.145Z" fill="#9A9AA0"/>
<path d="M181.141 34.9998V29.7798H182.021V31.9398H184.741V29.7798H185.621V34.9998H184.741V32.7198H182.021V34.9998H181.141Z" fill="#9A9AA0"/>
<path d="M186.65 34.9998L188.13 32.8998C187.79 32.8331 187.517 32.6731 187.31 32.4198C187.103 32.1598 187 31.8131 187 31.3798C187 31.0665 187.073 30.7898 187.22 30.5498C187.367 30.3098 187.57 30.1198 187.83 29.9798C188.097 29.8398 188.407 29.7698 188.76 29.7698H190.9V34.9998H190.02V33.0398H189L187.62 34.9998H186.65ZM188.82 32.3898H190.02V30.4598H188.92C188.607 30.4598 188.357 30.5498 188.17 30.7298C187.983 30.9031 187.89 31.1265 187.89 31.3998C187.89 31.6731 187.967 31.9065 188.12 32.0998C188.28 32.2931 188.513 32.3898 188.82 32.3898Z" fill="#9A9AA0"/>
<path d="M194.633 35.0998C194.24 35.0998 193.88 35.0298 193.553 34.8898C193.233 34.7431 192.953 34.5465 192.713 34.2998C192.48 34.0465 192.297 33.7565 192.163 33.4298C192.037 33.1031 191.973 32.7565 191.973 32.3898C191.973 31.8965 192.087 31.4465 192.313 31.0398C192.54 30.6331 192.853 30.3065 193.253 30.0598C193.66 29.8131 194.123 29.6898 194.643 29.6898C195.17 29.6898 195.627 29.8165 196.013 30.0698C196.407 30.3165 196.71 30.6431 196.923 31.0498C197.143 31.4498 197.253 31.8831 197.253 32.3498C197.253 32.4165 197.25 32.4831 197.243 32.5498C197.243 32.6098 197.24 32.6565 197.233 32.6898H192.903C192.93 33.0298 193.023 33.3331 193.183 33.5998C193.35 33.8598 193.563 34.0665 193.823 34.2198C194.083 34.3665 194.363 34.4398 194.663 34.4398C194.983 34.4398 195.283 34.3598 195.563 34.1998C195.85 34.0398 196.047 33.8298 196.153 33.5698L196.913 33.7798C196.8 34.0331 196.63 34.2598 196.403 34.4598C196.183 34.6598 195.92 34.8165 195.613 34.9298C195.313 35.0431 194.987 35.0998 194.633 35.0998ZM192.873 32.0798H196.433C196.406 31.7398 196.31 31.4398 196.143 31.1798C195.977 30.9198 195.763 30.7165 195.503 30.5698C195.243 30.4231 194.957 30.3498 194.643 30.3498C194.337 30.3498 194.053 30.4231 193.793 30.5698C193.533 30.7165 193.32 30.9198 193.153 31.1798C192.993 31.4398 192.9 31.7398 192.873 32.0798Z" fill="#9A9AA0"/>
<path d="M198.221 34.9998V29.7798H199.131L201.071 33.1998L203.021 29.7798H203.911V34.9998H203.071V31.0498L201.351 34.0698H200.791L199.061 31.0498V34.9998H198.221Z" fill="#9A9AA0"/>
<path d="M207.85 34.9998V29.7798H210.55C210.864 29.7798 211.124 29.8431 211.33 29.9698C211.537 30.0898 211.69 30.2465 211.79 30.4398C211.897 30.6331 211.95 30.8398 211.95 31.0598C211.95 31.3398 211.884 31.5931 211.75 31.8198C211.617 32.0398 211.424 32.2065 211.17 32.3198C211.47 32.4065 211.714 32.5631 211.9 32.7898C212.087 33.0098 212.18 33.2831 212.18 33.6098C212.18 33.9031 212.11 34.1531 211.97 34.3598C211.83 34.5665 211.634 34.7265 211.38 34.8398C211.127 34.9465 210.834 34.9998 210.5 34.9998H207.85ZM208.69 34.3798H210.48C210.64 34.3798 210.784 34.3398 210.91 34.2598C211.044 34.1798 211.147 34.0731 211.22 33.9398C211.294 33.8065 211.33 33.6665 211.33 33.5198C211.33 33.3598 211.294 33.2165 211.22 33.0898C211.154 32.9565 211.057 32.8531 210.93 32.7798C210.81 32.6998 210.67 32.6598 210.51 32.6598H208.69V34.3798ZM208.69 32.0798H210.32C210.48 32.0798 210.62 32.0398 210.74 31.9598C210.86 31.8731 210.954 31.7631 211.02 31.6298C211.087 31.4965 211.12 31.3565 211.12 31.2098C211.12 30.9898 211.047 30.7998 210.9 30.6398C210.76 30.4798 210.577 30.3998 210.35 30.3998H208.69V32.0798Z" fill="#9A9AA0"/>
<path d="M215.58 35.0998C215.186 35.0998 214.83 35.0298 214.51 34.8898C214.19 34.7431 213.913 34.5465 213.68 34.2998C213.446 34.0465 213.266 33.7565 213.14 33.4298C213.013 33.1031 212.95 32.7598 212.95 32.3998C212.95 32.0331 213.013 31.6865 213.14 31.3598C213.266 31.0331 213.446 30.7465 213.68 30.4998C213.913 30.2465 214.19 30.0498 214.51 29.9098C214.836 29.7631 215.193 29.6898 215.58 29.6898C215.973 29.6898 216.33 29.7631 216.65 29.9098C216.97 30.0498 217.246 30.2465 217.48 30.4998C217.72 30.7465 217.903 31.0331 218.03 31.3598C218.156 31.6865 218.22 32.0331 218.22 32.3998C218.22 32.7598 218.156 33.1031 218.03 33.4298C217.903 33.7565 217.723 34.0465 217.49 34.2998C217.256 34.5465 216.976 34.7431 216.65 34.8898C216.33 35.0298 215.973 35.0998 215.58 35.0998ZM213.85 32.4098C213.85 32.7698 213.926 33.0965 214.08 33.3898C214.24 33.6831 214.45 33.9165 214.71 34.0898C214.97 34.2565 215.26 34.3398 215.58 34.3398C215.9 34.3398 216.19 34.2531 216.45 34.0798C216.716 33.9065 216.926 33.6731 217.08 33.3798C217.24 33.0798 217.32 32.7498 217.32 32.3898C217.32 32.0298 217.24 31.7031 217.08 31.4098C216.926 31.1165 216.716 30.8831 216.45 30.7098C216.19 30.5365 215.9 30.4498 215.58 30.4498C215.26 30.4498 214.97 30.5398 214.71 30.7198C214.45 30.8931 214.24 31.1265 214.08 31.4198C213.926 31.7131 213.85 32.0431 213.85 32.4098Z" fill="#9A9AA0"/>
<path d="M220.916 35.0698C220.409 35.0698 219.979 34.9765 219.626 34.7898C219.279 34.5965 219.013 34.3298 218.826 33.9898L219.546 33.6698C219.666 33.8831 219.836 34.0498 220.056 34.1698C220.283 34.2898 220.556 34.3498 220.876 34.3498C221.256 34.3498 221.556 34.2665 221.776 34.0998C221.996 33.9331 222.106 33.7098 222.106 33.4298C222.106 33.1765 222.016 32.9731 221.836 32.8198C221.663 32.6598 221.416 32.5765 221.096 32.5698H220.566V31.9898H221.126C221.266 31.9898 221.389 31.9565 221.496 31.8898C221.609 31.8165 221.696 31.7198 221.756 31.5998C221.823 31.4798 221.856 31.3465 221.856 31.1998C221.856 30.9665 221.773 30.7798 221.606 30.6398C221.439 30.4931 221.189 30.4198 220.856 30.4198C220.583 30.4198 220.353 30.4731 220.166 30.5798C219.986 30.6865 219.839 30.8465 219.726 31.0598L219.056 30.6998C219.223 30.3865 219.463 30.1431 219.776 29.9698C220.096 29.7898 220.469 29.6998 220.896 29.6998C221.236 29.6998 221.536 29.7565 221.796 29.8698C222.063 29.9765 222.269 30.1331 222.416 30.3398C222.569 30.5465 222.646 30.7965 222.646 31.0898C222.646 31.3365 222.586 31.5665 222.466 31.7798C222.353 31.9865 222.183 32.1431 221.956 32.2498C222.269 32.3431 222.509 32.5065 222.676 32.7398C222.843 32.9665 222.926 33.2365 222.926 33.5498C222.926 33.8698 222.839 34.1431 222.666 34.3698C222.493 34.5965 222.256 34.7698 221.956 34.8898C221.656 35.0098 221.309 35.0698 220.916 35.0698Z" fill="#9A9AA0"/>
<path d="M223.973 34.9998V29.7798H224.883L226.823 33.1998L228.773 29.7798H229.663V34.9998H228.823V31.0498L227.103 34.0698H226.543L224.813 31.0498V34.9998H223.973Z" fill="#9A9AA0"/>
<path d="M233.363 35.0998C232.97 35.0998 232.613 35.0298 232.293 34.8898C231.973 34.7431 231.696 34.5465 231.463 34.2998C231.23 34.0465 231.05 33.7565 230.923 33.4298C230.796 33.1031 230.733 32.7598 230.733 32.3998C230.733 32.0331 230.796 31.6865 230.923 31.3598C231.05 31.0331 231.23 30.7465 231.463 30.4998C231.696 30.2465 231.973 30.0498 232.293 29.9098C232.62 29.7631 232.976 29.6898 233.363 29.6898C233.756 29.6898 234.113 29.7631 234.433 29.9098C234.753 30.0498 235.03 30.2465 235.263 30.4998C235.503 30.7465 235.686 31.0331 235.813 31.3598C235.94 31.6865 236.003 32.0331 236.003 32.3998C236.003 32.7598 235.94 33.1031 235.813 33.4298C235.686 33.7565 235.506 34.0465 235.273 34.2998C235.04 34.5465 234.76 34.7431 234.433 34.8898C234.113 35.0298 233.756 35.0998 233.363 35.0998ZM231.633 32.4098C231.633 32.7698 231.71 33.0965 231.863 33.3898C232.023 33.6831 232.233 33.9165 232.493 34.0898C232.753 34.2565 233.043 34.3398 233.363 34.3398C233.683 34.3398 233.973 34.2531 234.233 34.0798C234.5 33.9065 234.71 33.6731 234.863 33.3798C235.023 33.0798 235.103 32.7498 235.103 32.3898C235.103 32.0298 235.023 31.7031 234.863 31.4098C234.71 31.1165 234.5 30.8831 234.233 30.7098C233.973 30.5365 233.683 30.4498 233.363 30.4498C233.043 30.4498 232.753 30.5398 232.493 30.7198C232.233 30.8931 232.023 31.1265 231.863 31.4198C231.71 31.7131 231.633 32.0431 231.633 32.4098Z" fill="#9A9AA0"/>
<path d="M236.709 34.9998L238.629 32.3098L236.879 29.7798H237.869L239.369 31.9498H239.929V29.7798H240.829V31.9498H241.409L242.879 29.7798H243.879L242.129 32.3098L244.059 34.9998H243.049L241.409 32.7198H240.829V34.9998H239.929V32.7198H239.369L237.719 34.9998H236.709Z" fill="#9A9AA0"/>
<path d="M245.106 34.9998V29.7798H245.986V31.9398H248.706V29.7798H249.586V34.9998H248.706V32.7198H245.986V34.9998H245.106Z" fill="#9A9AA0"/>
<path d="M253.285 35.0998C252.891 35.0998 252.535 35.0298 252.215 34.8898C251.895 34.7431 251.618 34.5465 251.385 34.2998C251.151 34.0465 250.971 33.7565 250.845 33.4298C250.718 33.1031 250.655 32.7598 250.655 32.3998C250.655 32.0331 250.718 31.6865 250.845 31.3598C250.971 31.0331 251.151 30.7465 251.385 30.4998C251.618 30.2465 251.895 30.0498 252.215 29.9098C252.541 29.7631 252.898 29.6898 253.285 29.6898C253.678 29.6898 254.035 29.7631 254.355 29.9098C254.675 30.0498 254.951 30.2465 255.185 30.4998C255.425 30.7465 255.608 31.0331 255.735 31.3598C255.861 31.6865 255.925 32.0331 255.925 32.3998C255.925 32.7598 255.861 33.1031 255.735 33.4298C255.608 33.7565 255.428 34.0465 255.195 34.2998C254.961 34.5465 254.681 34.7431 254.355 34.8898C254.035 35.0298 253.678 35.0998 253.285 35.0998ZM251.555 32.4098C251.555 32.7698 251.631 33.0965 251.785 33.3898C251.945 33.6831 252.155 33.9165 252.415 34.0898C252.675 34.2565 252.965 34.3398 253.285 34.3398C253.605 34.3398 253.895 34.2531 254.155 34.0798C254.421 33.9065 254.631 33.6731 254.785 33.3798C254.945 33.0798 255.025 32.7498 255.025 32.3898C255.025 32.0298 254.945 31.7031 254.785 31.4098C254.631 31.1165 254.421 30.8831 254.155 30.7098C253.895 30.5365 253.605 30.4498 253.285 30.4498C252.965 30.4498 252.675 30.5398 252.415 30.7198C252.155 30.8931 251.945 31.1265 251.785 31.4198C251.631 31.7131 251.555 32.0431 251.555 32.4098Z" fill="#9A9AA0"/>
<path d="M259.301 35.0998C258.908 35.0998 258.548 35.0298 258.221 34.8898C257.901 34.7431 257.621 34.5431 257.381 34.2898C257.148 34.0365 256.964 33.7465 256.831 33.4198C256.704 33.0931 256.641 32.7465 256.641 32.3798C256.641 31.8865 256.751 31.4365 256.971 31.0298C257.191 30.6231 257.501 30.2998 257.901 30.0598C258.301 29.8131 258.764 29.6898 259.291 29.6898C259.804 29.6898 260.251 29.8065 260.631 30.0398C261.018 30.2665 261.304 30.5731 261.491 30.9598L260.631 31.2298C260.498 30.9831 260.311 30.7931 260.071 30.6598C259.831 30.5198 259.564 30.4498 259.271 30.4498C258.951 30.4498 258.658 30.5331 258.391 30.6998C258.131 30.8665 257.924 31.0965 257.771 31.3898C257.618 31.6765 257.541 32.0065 257.541 32.3798C257.541 32.7465 257.618 33.0798 257.771 33.3798C257.931 33.6731 258.141 33.9065 258.401 34.0798C258.668 34.2531 258.961 34.3398 259.281 34.3398C259.488 34.3398 259.684 34.3031 259.871 34.2298C260.064 34.1565 260.231 34.0598 260.371 33.9398C260.518 33.8131 260.618 33.6765 260.671 33.5298L261.531 33.7898C261.424 34.0431 261.261 34.2698 261.041 34.4698C260.828 34.6631 260.571 34.8165 260.271 34.9298C259.978 35.0431 259.654 35.0998 259.301 35.0998Z" fill="#9A9AA0"/>
<path d="M263.798 34.9998V30.5598H261.998V29.7798H266.478V30.5598H264.678V34.9998H263.798Z" fill="#9A9AA0"/>
<path d="M267.352 34.9998V29.7898H268.232V33.8198L271.152 29.7798H271.952V34.9998H271.072V31.0498L268.192 34.9998H267.352Z" fill="#9A9AA0"/>
<defs>
<linearGradient id="paint0_linear_4393_488653" x1="27.6129" y1="19.4999" x2="2.57533" y2="19.0257" gradientUnits="userSpaceOnUse">
<stop stop-color="#FF09D0" stop-opacity="0.87"/>
<stop offset="1" stop-color="#1D3CF8" stop-opacity="0.63"/>
</linearGradient>
<linearGradient id="paint1_linear_4393_488653" x1="26.9577" y1="20.1139" x2="21.0353" y2="20.1369" gradientUnits="userSpaceOnUse">
<stop stop-color="white"/>
<stop offset="1" stop-color="white" stop-opacity="0"/>
</linearGradient>
</defs>
</svg>
