<svg width="94" height="100" viewBox="0 0 94 100" fill="none" xmlns="http://www.w3.org/2000/svg">
<path d="M3.52095 3.35529C8.11233 -1.1908 15.6411 -1.23363 19.4948 3.94075C29.3704 17.2007 34.7913 33.3236 34.7913 50C34.7913 66.6763 29.3704 82.7993 19.4948 96.0592C15.6411 101.234 8.11236 101.191 3.52098 96.6447C-1.0704 92.0986 -0.939286 84.7748 2.57057 79.3659C8.21136 70.6731 11.2774 60.493 11.2774 50C11.2774 39.507 8.21135 29.3269 2.57056 20.6341C-0.939306 15.2252 -1.07043 7.90138 3.52095 3.35529Z" fill="#FA8244"/>
<path d="M90.479 96.6447C85.8877 101.191 78.3589 101.234 74.5052 96.0592C64.6296 82.7993 59.2087 66.6764 59.2087 50C59.2087 33.3237 64.6296 17.2007 74.5051 3.94081C78.3589 -1.23358 85.8876 -1.19075 90.479 3.35533C95.0704 7.90141 94.9393 15.2252 91.4294 20.6341C85.7886 29.327 82.7226 39.507 82.7226 50C82.7226 60.4931 85.7887 70.6731 91.4294 79.3659C94.9393 84.7749 95.0704 92.0986 90.479 96.6447Z" fill="#FA8244"/>
<path d="M3.82339 22.5801C32.9167 48.1229 66.0058 43.1741 90.3052 22.5792C80.3967 38.749 80.8614 61.6422 90.296 77.4215C59.8265 59.727 39.6379 57.6792 3.78739 77.4221C13.4168 60.6623 13.6446 40.7041 3.82339 22.5801Z" fill="url(#paint0_linear_9806_164469)"/>
<path d="M3.82339 22.5801C32.9167 48.1229 66.0058 43.1741 90.3052 22.5792C80.3967 38.749 80.8614 61.6422 90.296 77.4215C59.8265 59.727 39.6379 57.6792 3.78739 77.4221C13.4168 60.6623 13.6446 40.7041 3.82339 22.5801Z" fill="url(#paint1_linear_9806_164469)" fill-opacity="0.34"/>
<path d="M47 28L44 41.125L49.5 48L44 58L49.5 68" stroke="#F9F9F9" stroke-width="3"/>
<defs>
<linearGradient id="paint0_linear_9806_164469" x1="89.5039" y1="49.9996" x2="8.34789" y2="48.4551" gradientUnits="userSpaceOnUse">
<stop stop-color="#FF09D0" stop-opacity="0.87"/>
<stop offset="1" stop-color="#1D3CF8" stop-opacity="0.63"/>
</linearGradient>
<linearGradient id="paint1_linear_9806_164469" x1="87.3803" y1="51.9803" x2="68.1834" y2="52.0551" gradientUnits="userSpaceOnUse">
<stop stop-color="white"/>
<stop offset="1" stop-color="white" stop-opacity="0"/>
</linearGradient>
</defs>
</svg>
