<svg width="155" height="165" viewBox="0 0 155 165" fill="none" xmlns="http://www.w3.org/2000/svg">
<path d="M5.806 5.53598C13.3771 -1.96474 25.792 -2.0354 32.1467 6.50195C48.4314 28.3798 57.3704 54.9815 57.3704 82.4963C57.3704 110.011 48.4314 136.613 32.1467 158.491C25.792 167.028 13.3772 166.957 5.80605 159.457C-1.76508 151.956 -1.54887 139.872 4.23884 130.948C13.2695 116.398 18.2159 99.5161 18.5962 82.4963C17.9602 65.001 13.2153 48.2923 4.23882 34.0447C-1.5489 25.1204 -1.76512 13.0367 5.806 5.53598Z" fill="#FA8244"/>
<path d="M149.194 159.464C141.623 166.965 129.208 167.035 122.853 158.498C106.569 136.62 97.6296 110.018 97.6296 82.5038C97.6296 54.989 106.569 28.3873 122.853 6.50943C129.208 -2.02793 141.623 -1.95728 149.194 5.54343C156.765 13.0441 156.549 25.1278 150.761 34.0522C141.46 48.3947 136.404 65.191 136.404 82.5037C136.404 99.8165 141.46 116.613 150.761 130.955C156.549 139.88 156.765 151.963 149.194 159.464Z" fill="#FA8244"/>
<path d="M6.2147 37.2516C54.1892 79.3953 108.739 71.1843 148.808 37.2043C132.499 63.505 132.717 101.539 148.807 127.801C98.563 98.6058 65.3666 95.1233 6.24948 127.698C22.1283 100.045 22.4097 67.155 6.2147 37.2516Z" fill="url(#paint0_linear_7893_118661)"/>
<path d="M6.2147 37.2516C54.1892 79.3953 108.739 71.1843 148.808 37.2043C132.499 63.505 132.717 101.539 148.807 127.801C98.563 98.6058 65.3666 95.1233 6.24948 127.698C22.1283 100.045 22.4097 67.155 6.2147 37.2516Z" fill="url(#paint1_linear_7893_118661)" fill-opacity="0.34"/>
<defs>
<linearGradient id="paint0_linear_7893_118661" x1="147.586" y1="82.5035" x2="13.7606" y2="79.9581" gradientUnits="userSpaceOnUse">
<stop stop-color="#FF09D0" stop-opacity="0.87"/>
<stop offset="1" stop-color="#1D3CF8" stop-opacity="0.63"/>
</linearGradient>
<linearGradient id="paint1_linear_7893_118661" x1="144.084" y1="85.7714" x2="112.429" y2="85.8948" gradientUnits="userSpaceOnUse">
<stop stop-color="white"/>
<stop offset="1" stop-color="white" stop-opacity="0"/>
</linearGradient>
</defs>
</svg>
